<svg width="495" height="306" viewBox="0 0 495 306" xmlns="http://www.w3.org/2000/svg">
<style>
    .header { font: 600 18px 'Segoe UI', Ubuntu, Sans-Serif; fill: #58a6ff; }
    .stat-label { font: 400 14px 'Segoe UI', Ubuntu, Sans-Serif; fill: #747a81; }
    .stat-value { font: 700 14px 'Segoe UI', Ubuntu, Sans-Serif; fill: #747a81; }
    .score-label { font: 600 14px 'Segoe UI', Ubuntu, Sans-Serif; fill: #e3b341; }
    .score-value { font: 800 22px 'Segoe UI', Ubuntu, Sans-Serif; fill: #e3b341; }
    .repo-header { font: 600 13px 'Segoe UI', Ubuntu, Sans-Serif; fill: #8b949e; }
    .repo-name { font: 400 12px 'Segoe UI', Ubuntu, Sans-Serif; fill: #58a6ff; }
    .repo-score { font: 400 12px 'Segoe UI', Ubuntu, Sans-Serif; fill: #8b949e; }
    @keyframes fadeIn { from { opacity: 0; } to { opacity: 1; } }
    .fade-in { animation: fadeIn 0.3s ease-in-out forwards; }
  </style>
<rect x="0.5" y="0.5" rx="4.5" width="494" height="305" fill="transparent" stroke="#30363d"/>
<g transform="translate(25, 25)">
<text x="0" y="20" class="header">github-user's Contribution Stats</text>
<g transform="translate(0, 45)" class="fade-in"><svg x="0" y="0" width="16" height="16" viewBox="0 0 16 16" fill="#e3b341"><path d="M8 .25a.75.75 0 0 1 .673.418l1.882 3.815 4.21.612a.75.75 0 0 1 .416 1.279l-3.046 2.97.719 4.192a.751.751 0 0 1-1.088.791L8 12.347l-3.766 1.98a.75.75 0 0 1-1.088-.79l.72-4.194L.818 6.374a.75.75 0 0 1 .416-1.28l4.21-.611L7.327.668A.75.75 0 0 1 8 .25Z"/></svg><text x="22" y="13" class="score-label">Total Score:</text><text x="115" y="14" class="score-value">1000</text></g>
<g transform="translate(0, 80)" class="fade-in" style="animation-delay: 0.0s;"><svg x="0" y="0" width="16" height="16" viewBox="0 0 16 16" fill="#3fb950"><path d="M1.5 3.25a2.25 2.25 0 1 1 3 2.122v5.256a2.251 2.251 0 1 1-1.5 0V5.372A2.25 2.25 0 0 1 1.5 3.25Zm5.677-.177L9.573.677A.25.25 0 0 1 10 .854V2.5h1A2.5 2.5 0 0 1 13.5 5v5.628a2.251 2.251 0 1 1-1.5 0V5a1 1 0 0 0-1-1h-1v1.646a.25.25 0 0 1-.427.177L7.177 3.427a.25.25 0 0 1 0-.354ZM3.75 2.5a.75.75 0 1 0 0 1.5.75.75 0 0 0 0-1.5Zm0 9.5a.75.75 0 1 0 0 1.5.75.75 0 0 0 0-1.5Zm8.25.75a.75.75 0 1 0 1.5 0 .75.75 0 0 0-1.5 0Z"/></svg><text x="22" y="13" class="stat-label">Pull Requests:</text><text x="445" y="13" class="stat-value" text-anchor="end">300</text></g>
<g transform="translate(0, 105)" class="fade-in" style="animation-delay: 0.1s;"><svg x="0" y="0" width="16" height="16" viewBox="0 0 16 16" fill="#58a6ff"><path d="M11.93 8.5a4.002 4.002 0 0 1-7.86 0H.75a.75.75 0 0 1 0-1.5h3.32a4.002 4.002 0 0 1 7.86 0h3.32a.75.75 0 0 1 0 1.5Zm-1.43-.75a2.5 2.5 0 1 0-5 0 2.5 2.5 0 0 0 5 0Z"/></svg><text x="22" y="13" class="stat-label">Commits:</text><text x="445" y="13" class="stat-value" text-anchor="end">500</text></g>
<g transform="translate(0, 130)" class="fade-in" style="animation-delay: 0.3s;"><svg x="0" y="0" width="16" height="16" viewBox="0 0 16 16" fill="#f78166"><path d="M8 9.5a1.5 1.5 0 1 0 0-3 1.5 1.5 0 0 0 0 3Z"/><path d="M8 0a8 8 0 1 1 0 16A8 8 0 0 1 8 0ZM1.5 8a6.5 6.5 0 1 0 13 0 6.5 6.5 0 0 0-13 0Z"/></svg><text x="22" y="13" class="stat-label">Issues:</text><text x="445" y="13" class="stat-value" text-anchor="end">200</text></g>
<g transform="translate(0, 165)"><svg x="0" y="0" width="16" height="16" viewBox="0 0 16 16" fill="#8b949e"><path d="M2 2.5A2.5 2.5 0 0 1 4.5 0h8.75a.75.75 0 0 1 .75.75v12.5a.75.75 0 0 1-.75.75h-2.5a.75.75 0 0 1 0-1.5h1.75v-2h-8a1 1 0 0 0-.714 1.7.75.75 0 1 1-1.072 1.05A2.495 2.495 0 0 1 2 11.5Zm10.5-1h-8a1 1 0 0 0-1 1v6.708A2.486 2.486 0 0 1 4.5 9h8ZM5 12.25a.25.25 0 0 1 .25-.25h3.5a.25.25 0 0 1 .25.25v3.25a.25.25 0 0 1-.4.2l-1.45-1.087a.249.249 0 0 0-.3 0L5.4 15.7a.25.25 0 0 1-.4-.2Z"/></svg><text x="22" y="13" class="repo-header">Top Contributed Repositories</text></g>
<g transform="translate(22, 190)" class="fade-in" style="animation-delay: 0.4s;"><text x="0" y="13" class="repo-name">1. user-1/repository-1</text><text x="423" y="13" class="repo-score" text-anchor="end">55 pts</text></g>
<g transform="translate(22, 212)" class="fade-in" style="animation-delay: 0.6s;"><text x="0" y="13" class="repo-name">2. user-2/repository-2</text><text x="423" y="13" class="repo-score" text-anchor="end">30 pts</text></g>
<g transform="translate(22, 234)" class="fade-in" style="animation-delay: 0.8s;"><text x="0" y="13" class="repo-name">3. user-3/repository-3</text><text x="423" y="13" class="repo-score" text-anchor="end">19 pts</text></g>
</g>
</svg>
